<?xml version="1.0" encoding="UTF-8"?>
<svg xmlns="http://www.w3.org/2000/svg" viewBox="0 0 162.95 162.95">
  <defs>
    <style>
      .cls-1 {
        fill: #faf9f8;
      }

      .cls-2 {
        fill: #11316d;
      }
    </style>
  </defs>
  <g id="Layer_2" data-name="Layer 2">
    <rect class="cls-2" width="162.95" height="162.95"/>
  </g>
  <g id="Layer_1" data-name="Layer 1">
    <polygon class="cls-1" points="101.33 138.85 37.61 61.66 38.13 60.52 38.65 59.37 39.93 59.36 72.4 59.36 49.96 25.46 50.5 24.41 51.06 23.36 52.26 23.35 104.42 23.35 104.96 24.63 125.34 83.18 124.76 84.02 124.17 84.87 93.57 85.03 105.03 138.12 104.43 138.87 103.83 139.59 102.88 139.6 101.93 139.6 101.33 138.85"/>
    <path class="cls-1" d="M103.17,25.33s.02,0,.02.02l20.02,57.55s0,.02-.02.02l-31.97.17s-.02,0-.02.02l11.76,54.51s0,.02-.02.02h-.02L39.99,61.37s0-.03.02-.03h36.1s.02-.02.02-.03l-23.8-35.95s0-.03.02-.03h50.84M103.17,21.38h-53.2l-1.14,2.09-1.12,2.07,1.3,1.99,19.77,29.86h-31.3l-1.08,2.27-1.07,2.26,1.59,1.95,62.95,76.25,1.18,1.44h3.76l1.2-1.48,1.18-1.47-.39-1.86-10.74-49.78,27.14-.13h2.03l1.18-1.67,1.17-1.66-.66-1.93-20.01-57.54-.92-2.64-2.82-.02h0Z"/>
  </g>
</svg>